<?xml version="1.0" encoding="utf-8"?>
<?xml-stylesheet type="text/xsl" href="rss1.xsl"?>
<rss version="2.0" xmlns:atom="http://www.w3.org/2005/Atom" xmlns:content="http://purl.org/rss/1.0/modules/content/" xmlns:dc="http://purl.org/dc/elements/1.1/" xmlns:media="http://search.yahoo.com/mrss/">
<channel>
 <title>Getty</title>
 <link>http://www.gettyimg.com/</link>
 <atom:link href="http://www.gettyimg.com/" rel="self" type="application/rss+xml" />

 
                <item>
                <title><![CDATA[【Music Videos】Depeche Mode - Cover Me (DTS-HD 5.1) (Clean)]]></title>
                <link><![CDATA[https://sharemania.us/threads/depeche-mode-cover-me-dts-hd-5-1-clean.235075/]]></link>
                <description><![CDATA[<article>
<blockquote class="messageText SelectQuoteContainer ugc baseHtml">
<img src="https://i.ibb.co/kGdxFVB/Depeche-Mode-Cover-Me-DTS-HD-5-1-mp4-thumbs-2024-01-01-19-51-04.jpg" class="bbCodeImage LbImage" alt="[​IMG]" data-url="https://i.ibb.co/kGdxFVB/Depeche-Mode-Cover-Me-DTS-HD-5-1-mp4-thumbs-2024-01-01-19-51-04.jpg" style=""><br>
<br>
<div class="ToggleTriggerAnchor bbCodeSpoilerContainer">
<button type="button" class="button bbCodeSpoilerButton ToggleTrigger Tooltip JsOnly" data-target="> .SpoilerTarget"><span>Spoiler: <span class="SpoilerTitle">MediaInfo</span></span></button>
<div class="SpoilerTarget bbCodeSpoilerText">Depeche Mode - Cover Me (DTS-HD 5.1).mp4<br>
Format : MPEG-4<br>
Format profile : Base Media / Version 2<br>
Codec ID : mp42 (mp42/mp41)<br>
File size : 663 MiB<br>
Duration : 4 min 52 s<br>
Overall bit rate mode : Variable<br>
Overall bit rate : 19.1 Mb/s<br>
Frame rate : 60.000 FPS<br>
Encoded date : 2023-12-17 06:42:20 UTC<br>
Tagged date : 2023-12-17 07:34:18 UTC<br>
TIM : 00:00:00:00<br>
TSC : 60<br>
TSZ : 1<br>
<br>
Video<br>
ID : 1<br>
Format : AVC<br>
Format/Info : Advanced Video Codec<br>
Format profile : High@L4.2<br>
Format settings : CABAC / 4 Ref Frames<br>
Format settings, CABAC : Yes<br>
Format settings, Reference : 4 frames<br>
Format settings, GOP : M=3, N=60<br>
Codec ID : avc1<br>
Codec ID/Info : Advanced Video Coding<br>
Duration : 4 min 52 s<br>
Bit rate : 18.7 Mb/s<br>
Width : 1 920 pixels<br>
Height : 1 080 pixels<br>
Display aspect ratio : 16:9<br>
Frame rate mode : Constant<br>
Frame rate : 60.000 FPS<br>
Color space : YUV<br>
Chroma subsampling : 4:2:0<br>
Bit depth : 8 bits<br>
Scan type : Progressive<br>
Bits/(Pixel*Frame) : 0.151<br>
Stream size : 652 MiB (98%)<br>
Language : English<br>
Encoded date : 2023-12-17 06:42:28 UTC<br>
Tagged date : 2023-12-17 06:42:28 UTC<br>
Color range : Limited<br>
Color primaries : BT.709<br>
Transfer characteristics : BT.709<br>
Matrix coefficients : BT.709<br>
Codec configuration box : avcC<br>
<br>
Audio<br>
ID : 2<br>
Format : AAC LC<br>
Format/Info : Advanced Audio Codec Low Complexity<br>
Codec ID : mp4a-40-2<br>
Duration : 4 min 52 s<br>
Source duration : 4 min 52 s<br>
Bit rate mode : Variable<br>
Bit rate : 317 kb/s<br>
Maximum bit rate : 359 kb/s<br>
Channel(s) : 6 channels<br>
Channel layout : C L R Ls Rs LFE<br>
Sampling rate : 48.0 kHz<br>
Frame rate : 46.875 FPS (1024 SPF)<br>
Compression mode : Lossy<br>
Stream size : 11.0 MiB (2%)<br>
Source stream size : 11.0 MiB (2%)<br>
Language : English<br>
Encoded date : 2023-12-17 06:42:26 UTC<br>
Tagged date : 2023-12-17 06:42:26 UTC</div>
</div><br>
<div class="bbCodeBlock bbCodeVfcHH HiddenContent">
<div class="attribution type">Hidden Content:</div>
<blockquote>You must reply before you can see the hidden data contained here.</blockquote>
</div><br>
*Este es mi segundo post para comenzar a compartir videos, musica, etc... Si hay que corregir algo en el post (Prefix, MediaInfo, etc) le ruego a algun administrador que me envie mensaje por interno para que me enseñe y asi pueda proceder a la edición!<br>
<br>
De antemano muchisimas gracias!!!<br>
------------------------------------------------<br>
<br>
*This is my second post to start sharing videos, music, etc... If something needs to be corrected in the post (Prefix, MediaInfo, etc.) I ask an administrator to send me a message internally so they can show me and so I can proceed to editing!<br>
<br>
Thank you very much in advance!!!
<div class="messageTextEndMarker">&nbsp;</div>
</blockquote>
</article>]]></description>
                <author><![CDATA[DJ-RoGeRs-BS]]></author>
                </item>

                </channel></rss>